{"title":"Jerzy Kawalerowicz - Pociag (1959) BR Rip XviD","uid":8047684,"size":1245624105,"categoryP":"video","categoryS":"movies","magnet":"?xt=urn:btih:3d80d85c0184d626bb000b8c3d456abe832eb7d7&amp;dn=Jerzy+Kawalerowicz+-+Pociag+%281959%29+BR+Rip+XviD&amp;tr=udp%3A%2F%2Ftracker.openbittorrent.com%3A80&amp;tr=udp%3A%2F%2Fopen.demonii.com%3A1337&amp;tr=udp%3A%2F%2Ftracker.coppersurfer.tk%3A6969&amp;tr=udp%3A%2F%2Fexodus.desync.com%3A6969","seeders":2,"leechers":0,"uploader":"rpessoa","files":4,"time":1358788881,"description":"A man, Jerzy, enters a train set for the Baltic coast. He seems to be on the run from something. He has to share sleeping-compartment with a woman who also seems to be on the run. Eventually we get to know that the police are looking for an escaped murderer. Is it really Jerzy they are looking for? From IMDb\n  &lt;a href=&quot;\nhttp://www.imdb.com/title/tt0053176/&quot; rel=&quot;nofollow&quot; target=&quot;_NEW&quot;&gt;\nhttp://www.imdb.com/title/tt0053176/&lt;/a&gt;\n\nGeneral\nComplete name                            : Jerzy Kawalerowicz - Pociag (1959) BR Rip XviDPociag.avi\nFormat                                   : AVI\nFormat/Info                              : Audio Video Interleave\nFile size                                : 1.16 GiB\nDuration                                 : 1h 37mn\nOverall bit rate                         : 1 709 Kbps\nWriting application                      : VirtualDubMod 1.5.10.2 (build 2540/release)\nWriting library                          : VirtualDubMod build 2540/release\n\nVideo\nID                                       : 0\nFormat                                   : MPEG-4 Visual\nFormat profile                           : Advanced Simple@L5\nFormat settings, BVOP                    : 2\nFormat settings, QPel                    : No\nFormat settings, GMC                     : No warppoints\nFormat settings, Matrix                  : Default (H.263)\nCodec ID                                 : XVID\nCodec ID/Hint                            : XviD\nDuration                                 : 1h 37mn\nBit rate                                 : 1 508 Kbps\nWidth                                    : 640 pixels\nHeight                                   : 488 pixels\nDisplay aspect ratio                     : 4:3\nFrame rate                               : 23.976 fps\nColor space                              : YUV\nChroma subsampling                       : 4:2:0\nBit depth                                : 8 bits\nScan type                                : Progressive\nCompression mode                         : Lossy\nBits/(Pixel*Frame)                       : 0.201\nStream size                              : 1.02 GiB (88%)\nWriting library                          : XviD 1.2.1 (UTC 2008-12-04)\n\nAudio\nID                                       : 1\nFormat                                   : AC-3\nFormat/Info                              : Audio Coding 3\nMode extension                           : CM (complete main)\nFormat settings, Endianness              : Big\nCodec ID                                 : 2000\nDuration                                 : 1h 37mn\nBit rate mode                            : Constant\nBit rate                                 : 192 Kbps\nChannel(s)                               : 2 channels\nChannel positions                        : Front: L R\nSampling rate                            : 48.0 KHz\nBit depth                                : 16 bits\nCompression mode                         : Lossy\nStream size                              : 133 MiB (11%)\nAlignment                                : Split accross interleaves\nInterleave, duration                     : 42 ms (1.00 video frame)\nInterleave, preload duration             : 500 ms\n\n","torrent":{"xt":"urn:btih:3d80d85c0184d626bb000b8c3d456abe832eb7d7","amp;dn":"Jerzy+Kawalerowicz+-+Pociag+%281959%29+BR+Rip+XviD","amp;tr":["udp%3A%2F%2Ftracker.openbittorrent.com%3A80","udp%3A%2F%2Fopen.demonii.com%3A1337","udp%3A%2F%2Ftracker.coppersurfer.tk%3A6969","udp%3A%2F%2Fexodus.desync.com%3A6969"],"infoHash":"3d80d85c0184d626bb000b8c3d456abe832eb7d7","infoHashBuffer":{"type":"Buffer","data":[61,128,216,92,1,132,214,38,187,0,11,140,61,69,106,190,131,46,183,215]},"announce":[],"urlList":[]}}